HIERARCHY
ROOT Hips
{
 OFFSET 0.000000 0.000000 0.000000
 CHANNELS 6 Xposition Yposition Zposition Yrotation Xrotation Zrotation
 JOINT Chest
 {
  OFFSET 0.000000 9.585900 0.002600
  CHANNELS 3 Yrotation Xrotation Zrotation
  JOINT Chest2
  {
   OFFSET 0.000000 9.601200 -0.005300
   CHANNELS 3 Yrotation Xrotation Zrotation
   JOINT Chest3
   {
    OFFSET 0.000000 9.561800 0.000000
    CHANNELS 3 Yrotation Xrotation Zrotation
    JOINT Chest4
    {
     OFFSET 0.000000 9.552100 0.000000
     CHANNELS 3 Yrotation Xrotation Zrotation
     JOINT Neck
     {
      OFFSET 0.000000 14.453000 0.000000
      CHANNELS 3 Yrotation Xrotation Zrotation
      JOINT Head
      {
       OFFSET 0.000000 8.936500 -0.011300
       CHANNELS 3 Yrotation Xrotation Zrotation
       End Site
       {
        OFFSET 0.000000 17.073600 -0.006000
       }
      }
     }
     JOINT RightCollar
     {
      OFFSET -2.921100 9.558500 0.000000
      CHANNELS 3 Yrotation Xrotation Zrotation
      JOINT RightShoulder
      {
       OFFSET -13.519700 0.000000 0.000000
       CHANNELS 3 Yrotation Xrotation Zrotation
       JOINT RightElbow
       {
        OFFSET 0.000000 -29.696600 0.000000
        CHANNELS 3 Yrotation Xrotation Zrotation
        JOINT RightWrist
        {
         OFFSET 0.000000 -24.004700 0.000000
         CHANNELS 3 Yrotation Xrotation Zrotation
         End Site
         {
          OFFSET 0.000000 -17.728500 0.000000
         }
        }
       }
      }
     }
     JOINT LeftCollar
     {
      OFFSET 2.921100 9.558500 0.000000
      CHANNELS 3 Yrotation Xrotation Zrotation
      JOINT LeftShoulder
      {
       OFFSET 13.519700 0.000000 0.000000
       CHANNELS 3 Yrotation Xrotation Zrotation
       JOINT LeftElbow
       {
        OFFSET 0.000000 -29.696600 0.000000
        CHANNELS 3 Yrotation Xrotation Zrotation
        JOINT LeftWrist
        {
         OFFSET 0.000000 -24.004700 0.000000
         CHANNELS 3 Yrotation Xrotation Zrotation
         End Site
         {
          OFFSET 0.000000 -17.728500 0.000000
         }
        }
       }
      }
     }
    }
   }
  }
 }
 JOINT RightHip
 {
  OFFSET -7.771700 -0.012900 -0.001300
  CHANNELS 3 Yrotation Xrotation Zrotation
  JOINT RightKnee
  {
   OFFSET 0.000000 -40.869800 0.001200
   CHANNELS 3 Yrotation Xrotation Zrotation
   JOINT RightAnkle
   {
    OFFSET 0.000000 -39.717900 0.002100
    CHANNELS 3 Yrotation Xrotation Zrotation
    JOINT RightToe
    {
     OFFSET 0.000000 -4.965400 11.033500
     CHANNELS 3 Yrotation Xrotation Zrotation
     End Site
     {
      OFFSET 0.000000 -1.423100 5.872300
     }
    }
   }
  }
 }
 JOINT LeftHip
 {
  OFFSET 7.771700 -0.012900 -0.001300
  CHANNELS 3 Yrotation Xrotation Zrotation
  JOINT LeftKnee
  {
   OFFSET 0.000000 -40.869800 0.001200
   CHANNELS 3 Yrotation Xrotation Zrotation
   JOINT LeftAnkle
   {
    OFFSET 0.000000 -39.717900 0.002100
    CHANNELS 3 Yrotation Xrotation Zrotation
    JOINT LeftToe
    {
     OFFSET 0.000000 -4.965400 11.033500
     CHANNELS 3 Yrotation Xrotation Zrotation
     End Site
     {
      OFFSET 0.000000 -1.423100 5.872300
     }
    }
   }
  }
 }
}
MOTION
Frames: 8
Frame Time: 0.008333
0.000000 85.388000 0.000000 0.000000 -5.767877 0.000000 0.000000 11.653817 0.000000 0.000000 -5.885947 0.000000 0.000000 -0.000000 0.000000 0.000000 -0.000000 0.000000 0.000000 12.528835 0.000000 0.000000 0.711642 0.000000 0.000000 -0.000000 0.000000 0.000000 0.000000 -90.000000 0.000000 -2.309062 0.000000 0.000000 2.309062 0.000000 0.000000 -0.000000 0.000000 0.000000 -0.000000 90.000000 0.000000 -2.309062 0.000000 0.000000 2.309062 0.000000 0.000000 8.520406 0.000000 0.000000 1.905762 0.000000 -0.000000 -4.658285 0.000000 0.000000 -0.000000 0.000000 0.000000 8.520406 0.000000 0.000000 1.905762 0.000000 -0.000000 -4.658285 0.000000 0.000000 -0.000000 0.000000
-17.550051 57.557133 71.198327 -174.400808 -29.956403 -0.505310 2.796690 17.668790 3.875639 0.227863 1.990552 0.298426 0.423146 3.286559 0.496310 2.375197 15.477175 2.599213 -5.873437 11.185014 -3.464438 -9.774909 -15.044670 -4.098997 2.018827 -2.736085 -0.411623 4.928747 -11.716953 -15.114845 60.519256 -81.540971 -25.731574 12.726717 -19.249146 -49.314898 -7.522196 -2.390972 -2.171929 12.280992 -17.311375 3.996549 108.895375 -61.687622 -143.609327 -11.270585 9.703025 -34.881565 12.811673 -40.026248 -9.342758 -8.499637 68.836187 -13.233173 3.512484 3.505012 14.000199 -0.362489 0.574105 -0.172847 -3.438583 -48.050388 -1.826370 23.090363 66.916001 18.328098 -14.269417 29.594315 5.840837 0.362676 -17.131890 -4.453978
-17.549311 57.557161 71.198623 -174.386055 -29.976457 -0.502593 2.805578 17.680044 3.871409 0.254816 1.982260 0.295552 0.478826 3.274502 0.487218 2.349302 15.490866 2.608002 -6.167399 11.021636 -3.488174 -10.334285 -15.341684 -4.007783 1.993650 -2.750487 -0.386075 4.914755 -11.679909 -15.093099 59.682092 -81.332016 -24.801128 12.740909 -19.240935 -49.269265 -7.583694 -2.446812 -2.186446 12.136452 -17.717502 4.276368 106.739431 -60.777129 -142.238212 -11.101264 9.648865 -35.471309 12.798564 -40.003407 -9.355790 -8.499767 68.837458 -13.229358 3.534281 3.494674 14.004656 -0.375046 0.577500 -0.180194 -3.429208 -48.034674 -1.842644 23.087069 66.913996 18.325284 -14.286280 29.621258 5.840574 0.369889 -17.145429 -4.455402
-17.543110 57.556773 71.199108 -174.393811 -29.994267 -0.517507 2.908088 17.666226 3.911668 0.248819 1.986399 0.294841 0.451211 3.284462 0.491515 2.373000 15.491335 2.604884 -6.464370 10.860348 -3.510612 -10.901295 -15.633557 -3.911462 1.968789 -2.767979 -0.364584 4.876631 -11.653101 -15.077736 58.926833 -81.138306 -23.920804 12.751644 -19.229846 -49.220098 -7.657002 -2.509081 -2.195054 11.988745 -18.115298 4.542677 104.627298 -59.784991 -140.918764 -10.861708 9.563691 -35.972917 12.787276 -39.990101 -9.337322 -8.485186 68.839499 -13.207114 3.583340 3.462485 14.028682 -0.428480 0.595030 -0.203731 -3.438885 -48.017975 -1.815519 23.095930 66.907802 18.331875 -14.254072 29.667054 5.881596 0.345464 -17.182219 -4.476771
-17.547265 57.554393 71.203712 -174.340761 -29.990676 -0.496026 2.894329 17.652591 3.871397 0.264483 1.984404 0.293608 0.444203 3.288783 0.491983 2.397496 15.492691 2.603193 -6.763464 10.702354 -3.532035 -11.473993 -15.918007 -3.811006 1.940132 -2.789662 -0.345026 4.876490 -11.614002 -15.056860 58.283079 -80.944477 -23.188627 12.760874 -19.216476 -49.167823 -7.741090 -2.576394 -2.199921 11.829732 -18.498719 4.792979 102.621615 -58.726362 -139.691875 -10.569391 9.451687 -36.392017 12.785001 -39.984398 -9.407725 -8.486450 68.843207 -13.196723 3.550573 3.488581 14.005178 -0.385433 0.576887 -0.184360 -3.425840 -48.030146 -1.880300 23.141526 66.888088 18.366132 -14.327350 29.700479 5.852459 0.378108 -17.189141 -4.463813
-17.537491 57.552433 71.206218 -174.339852 -29.991837 -0.531174 2.952721 17.642469 3.916899 0.267819 1.985539 0.293223 0.422587 3.291318 0.495776 2.448629 15.494394 2.595662 -7.061767 10.547890 -3.552294 -12.046757 -16.194643 -3.707333 1.905416 -2.817046 -0.323875 4.874645 -11.575506 -15.042846 57.718590 -80.765737 -22.526874 12.772395 -19.201037 -49.113567 -7.832675 -2.650808 -2.202589 11.664890 -18.862397 5.021911 100.735067 -57.613679 -138.564134 -10.236265 9.313215 -36.724806 12.760596 -39.992914 -9.368370 -8.488438 68.845732 -13.189976 3.587514 3.464519 14.023111 -0.427413 0.591754 -0.203100 -3.462065 -48.036328 -1.819198 23.158367 66.887265 18.376044 -14.308106 29.755838 5.888701 0.354256 -17.232211 -4.480140
-17.533345 57.551806 71.206592 -174.324886 -30.008724 -0.541587 2.965167 17.655374 3.925175 0.292265 1.984154 0.289333 0.404316 3.293970 0.500190 2.494555 15.494706 2.588124 -7.354942 10.398344 -3.572595 -12.610822 -16.461105 -3.604938 1.867120 -2.844098 -0.303312 4.909947 -11.532145 -15.043112 57.191849 -80.599991 -21.930277 12.783310 -19.183758 -49.054755 -7.926443 -2.730161 -2.204899 11.514166 -19.203167 5.221978 98.952146 -56.449304 -137.524232 -9.861296 9.151352 -36.981231 12.744369 -39.978296 -9.362563 -8.494749 68.850108 -13.188535 3.590223 3.463208 14.018612 -0.428820 0.589893 -0.203713 -3.479655 -48.027452 -1.801441 23.173698 66.889978 18.382347 -14.331834 29.787498 5.888712 0.364641 -17.252612 -4.483283
-17.529395 57.550972 71.207057 -174.317224 -30.021651 -0.549781 2.982922 17.664657 3.934005 0.293378 1.984169 0.288986 0.469575 3.291515 0.488170 2.479378 15.494861 2.597026 -7.639763 10.256209 -3.593125 -13.159674 -16.713159 -3.505966 1.825371 -2.866314 -0.284464 4.893193 -11.510133 -15.033008 56.819497 -80.442162 -21.425230 12.791688 -19.165591 -48.986782 -8.004456 -2.768010 -2.190983 11.388629 -19.559481 5.360773 97.253032 -55.235202 -136.556363 -9.438678 8.968751 -37.162139 12.736730 -39.969268 -9.360842 -8.481746 68.855618 -13.167893 3.600086 3.468738 14.020276 -0.436143 0.581180 -0.206355 -3.495097 -48.021927 -1.780236 23.179907 66.896687 18.380470 -14.350106 29.809247 5.885922 0.380559 -17.265549 -4.486301
